<?xml version="1.0" encoding="iso-8859-1"?>
<!-- Generator: Adobe Illustrator 16.0.0, SVG Export Plug-In . SVG Version: 6.00 Build 0)  -->
<!DOCTYPE svg PUBLIC "-//W3C//DTD SVG 1.1//EN" "http://www.w3.org/Graphics/SVG/1.1/DTD/svg11.dtd">
<svg xmlns="http://www.w3.org/2000/svg" xmlns:xlink="http://www.w3.org/1999/xlink" version="1.1" id="Capa_1" x="0px" y="0px" width="512px" height="512px" viewBox="0 0 77.117 77.116" style="enable-background:new 0 0 77.117 77.116;" xml:space="preserve">
<g>
	<path d="M12.509,11.684c0,0.14,0,53.748,0,53.748c0.001,6.66,11.199,11.685,26.049,11.685c14.85,0,26.048-5.022,26.049-11.685   V12.099h-0.021c0.01-0.138,0.021-0.275,0.021-0.415C64.607,5.023,53.408,0,38.558,0C23.707,0,12.509,5.023,12.509,11.684z    M61.607,11.684c0,4.107-9.466,8.685-23.049,8.685S15.51,15.792,15.51,11.684S24.975,3,38.558,3S61.607,7.577,61.607,11.684z    M38.558,74.116c-0.612,0-1.205-0.021-1.799-0.038V23.342h-0.001c0.594,0.016,1.194,0.026,1.801,0.026   c10.251,0,18.761-2.395,23.049-6.068v48.131C61.607,69.538,52.141,74.116,38.558,74.116z" fill="#006DF0"/>
</g>
<g>
</g>
<g>
</g>
<g>
</g>
<g>
</g>
<g>
</g>
<g>
</g>
<g>
</g>
<g>
</g>
<g>
</g>
<g>
</g>
<g>
</g>
<g>
</g>
<g>
</g>
<g>
</g>
<g>
</g>
</svg>
